<svg width="14" height="14" viewBox="0 0 14 14" fill="none" xmlns="http://www.w3.org/2000/svg">
<path fill-rule="evenodd" clip-rule="evenodd" d="M3.34033 12.332C3.34033 11.5987 3.93366 10.9987 4.66699 10.9987C5.40033 10.9987 6.00033 11.5987 6.00033 12.332C6.00033 13.0654 5.40033 13.6654 4.66699 13.6654C3.93366 13.6654 3.34033 13.0654 3.34033 12.332ZM0.666992 1.66536V0.332031H2.84699L3.47366 1.66536H13.3337C13.7003 1.66536 14.0003 1.96536 14.0003 2.33203C14.0003 2.44536 13.9737 2.5587 13.9203 2.65203L11.5337 6.9787C11.307 7.39203 10.867 7.66536 10.367 7.66536H5.40033L4.80032 8.75203L4.78033 8.83203C4.78033 8.92536 4.85366 8.9987 4.94699 8.9987H12.667V10.332H4.66699C3.93366 10.332 3.33366 9.73203 3.33366 8.9987C3.33366 8.76536 3.39366 8.54536 3.50033 8.3587L4.40033 6.72536L2.00033 1.66536H0.666992ZM10.007 12.332C10.007 11.5987 10.6003 10.9987 11.3337 10.9987C12.067 10.9987 12.667 11.5987 12.667 12.332C12.667 13.0654 12.067 13.6654 11.3337 13.6654C10.6003 13.6654 10.007 13.0654 10.007 12.332ZM12.2554 2.9987H4.00033L5.55445 6.33203H10.3337L12.2554 2.9987Z" fill="white"/>
</svg>
