<svg width="40" height="40" viewBox="0 0 40 40" fill="none" xmlns="http://www.w3.org/2000/svg">
<path fill-rule="evenodd" clip-rule="evenodd" d="M0 20C0 8.95431 8.95431 0 20 0C31.0457 0 40 8.95431 40 20C40 31.0457 31.0457 40 20 40C8.95431 40 0 31.0457 0 20Z" fill="#DC4E41"/>
<path fill-rule="evenodd" clip-rule="evenodd" d="M16.3636 21.6V19.4286H22.3727C22.4273 19.7452 22.4727 20.0619 22.4727 20.4781C22.4727 24.0971 20.0364 26.6667 16.3636 26.6667C12.8455 26.6667 10 23.8348 10 20.3333C10 16.8319 12.8455 14 16.3636 14C18.0818 14 19.5182 14.6243 20.6273 15.6557L18.9 17.3114C18.4273 16.859 17.6 16.3343 16.3636 16.3343C14.1909 16.3343 12.4182 18.1257 12.4182 20.3333C12.4182 22.541 14.1909 24.3324 16.3636 24.3324C18.8818 24.3324 19.8273 22.5319 19.9727 21.6H16.3636ZM28.1818 19.4286H29.9999V21.2381H28.1818V23.0476H26.3636V21.2381H24.5454V19.4286H26.3636V17.619H28.1818V19.4286Z" fill="white"/>
</svg>
