<svg width="56" height="40" viewBox="0 0 56 40" fill="none" xmlns="http://www.w3.org/2000/svg">
<rect width="56" height="32" fill="#FF4F12"/>
<path d="M23.4414 21H21.8301L19.6855 17.4961L17.5234 21H16.0234L18.8652 16.5586L16.2051 12.4336H17.7637L19.7441 15.6738L21.7246 12.4336H23.2363L20.5586 16.582L23.4414 21ZM24.5957 12.4336H25.8789V16.8867C25.8789 17.3516 25.8672 17.8223 25.8438 18.2988C25.8203 18.7715 25.8027 19.0918 25.791 19.2598H25.8438L30.2207 12.4336H31.8555V21H30.5664V16.582C30.5664 15.9062 30.6035 15.0859 30.6777 14.1211H30.6309L26.2363 21H24.5957V12.4336ZM37.0586 21H35.6582V13.6348H33.1387V12.4336H39.5781V13.6348H37.0586V21Z" fill="white"/>
<path d="M0 32H8V40L0 32Z" fill="#FF4F12"/>
</svg>
