<svg width="32" height="31" viewBox="0 0 32 31" fill="none" xmlns="http://www.w3.org/2000/svg">
<path d="M18 17C16.896 17 16 17.896 16 19C16 20.104 16.896 21 18 21C19.104 21 20 20.104 20 19C20 17.896 19.104 17 18 17ZM29.002 12C29.001 12 29 12 29 12V3C29 1.343 27.657 0 26 0H5.5C2.467 0 0 2.468 0 5.5V25.5C0 28.532 2.467 31 5.5 31H23.5C26.532 31 29 28.532 29 25.5V24C29 24 29.001 24 29.002 24C33 20.999 33 15.001 29.002 12ZM5.5 2H26C26.551 2 27 2.448 27 3V9.184C26.686 9.073 26.353 9 26 9V4C26 3.447 25.552 3 25 3H4C3.448 3 3 3.447 3 4V7.943C2.383 7.312 2 6.452 2 5.5C2 3.567 3.567 2 5.5 2ZM4 7V6H25V7H4ZM25 8V9H5.5C4.96 9 4.456 8.868 4 8.65V8H25ZM4 5V4H25V5H4ZM27 25.5C27 27.433 25.434 29 23.5 29H5.5C3.567 29 2 27.433 2 25.5V9.739C2.952 10.526 4.171 11 5.5 11H26C26.551 11 27 11.448 27 12V14H18C15.239 14 13 16.238 13 19C13 21.762 15.239 24 18 24H27V25.5ZM28.277 22H18C16.346 22 15 20.654 15 19C15 17.346 16.346 16 18 16H27C27.618 15.992 28.229 15.693 28.603 15.196C28.707 15.056 28.787 14.899 28.853 14.735C28.861 14.713 28.877 14.696 28.885 14.673C29.605 15.615 30 16.772 30 17.999C30 19.538 29.379 20.965 28.277 22Z" fill="#3D95E0"/>
</svg>
