<svg width="44" height="28" viewBox="0 0 44 28" fill="none" xmlns="http://www.w3.org/2000/svg">
<path d="M27.5856 3.8667H16.3164V24.119H27.5856V3.8667Z" fill="#FF5F00"/>
<path d="M17.0304 13.9946C17.0283 12.0439 17.4701 10.1183 18.3224 8.36358C19.1746 6.60887 20.415 5.07109 21.9495 3.86668C20.0495 2.3735 17.7678 1.44498 15.365 1.18724C12.9623 0.929503 10.5355 1.35294 8.36209 2.40917C6.18864 3.46539 4.35619 5.11179 3.07418 7.16019C1.79216 9.20859 1.1123 11.5763 1.1123 13.9929C1.1123 16.4094 1.79216 18.7771 3.07418 20.8255C4.35619 22.8739 6.18864 24.5203 8.36209 25.5765C10.5355 26.6328 12.9623 27.0562 15.365 26.7985C17.7678 26.5407 20.0495 25.6122 21.9495 24.119C20.4154 22.915 19.1754 21.3778 18.3231 19.6237C17.4709 17.8697 17.0288 15.9448 17.0304 13.9946Z" fill="#EB001B"/>
<path d="M42.7892 13.9947C42.7892 16.4113 42.1092 18.7793 40.8269 20.8277C39.5447 22.8762 37.712 24.5226 35.5382 25.5786C33.3645 26.6347 30.9375 27.0579 28.5347 26.7998C26.1318 26.5417 23.85 25.6127 21.9502 24.119C23.4836 22.9139 24.7233 21.3763 25.5758 19.6222C26.4282 17.868 26.8712 15.9432 26.8712 13.9929C26.8712 12.0426 26.4282 10.1177 25.5758 8.36359C24.7233 6.60945 23.4836 5.07181 21.9502 3.8667C23.85 2.37306 26.1318 1.44409 28.5347 1.18598C30.9375 0.927868 33.3645 1.35104 35.5382 2.40711C37.712 3.46319 39.5447 5.10955 40.8269 7.15802C42.1092 9.20649 42.7892 11.5744 42.7892 13.9911V13.9947Z" fill="#F79E1B"/>
<path d="M41.5593 21.9725V21.5575H41.7275V21.4717H41.3018V21.5575H41.4842V21.9725H41.5593ZM42.3857 21.9725V21.4717H42.2569L42.1067 21.8294L41.9564 21.4717H41.842V21.9725H41.935V21.5969L42.0745 21.9225H42.1711L42.3106 21.5969V21.9761L42.3857 21.9725Z" fill="#F79E1B"/>
</svg>
