<svg width="72" height="20" viewBox="0 0 72 20" fill="none" xmlns="http://www.w3.org/2000/svg">
<path d="M50.8311 9.49756V20.0001H57.2311V14.0924H63.6721C67.0362 14.0924 69.908 12.1847 71.0157 9.49756H50.8311Z" fill="#006848"/>
<path d="M50.543 0C50.5635 0.533333 50.6455 1.06667 50.7686 1.55897C50.7891 1.66154 50.8301 1.78462 50.8507 1.88718C50.8712 1.92821 50.8712 1.96923 50.8917 2.03077C52.0404 5.66154 55.425 8.28718 59.425 8.28718H71.2404C71.3224 7.87692 71.3635 7.46667 71.3635 7.0359C71.3635 4.98462 70.4814 3.13846 69.066 1.84615C67.8148 0.697436 66.1532 0 64.3071 0H50.543V0Z" fill="url(#paint0_linear)"/>
<path d="M39.4871 2.11282L35.0153 11.8154H34.5641V0H28.2051V20H33.6C35.0153 20 36.3076 19.1795 36.9025 17.8872L41.3743 8.18462H41.8256V20H48.1846V0H42.7897C41.3743 0 40.082 0.820513 39.4871 2.11282Z" fill="#006848"/>
<path d="M9.84615 2.62564L12.5128 11.8154H12.9641L15.6103 2.62564C16.0615 1.06667 17.4769 0 19.0974 0H25.4564V20H19.0974V8.18462H18.6462L14.9949 20H10.4615L6.81026 8.18462H6.35897V20H0V0H6.35897C7.97949 0 9.39487 1.06667 9.84615 2.62564Z" fill="#006848"/>
<defs>
<linearGradient id="paint0_linear" x1="50.5394" y1="4.14611" x2="71.3572" y2="4.14611" gradientUnits="userSpaceOnUse">
<stop stop-color="#02AFFF"/>
<stop offset="1" stop-color="#1F5BDE"/>
</linearGradient>
</defs>
</svg>
