<svg width="93" height="40" viewBox="0 0 93 40" fill="none" xmlns="http://www.w3.org/2000/svg">
<rect width="93" height="32" fill="#41AF46"/>
<path d="M23.8867 21H22.4805V17.1387H18.5312V21H17.1309V12.4336H18.5312V15.9375H22.4805V12.4336H23.8867V21ZM33.748 16.7051C33.748 18.0996 33.3984 19.1836 32.6992 19.957C32.0039 20.7305 31.0176 21.1172 29.7402 21.1172C28.4473 21.1172 27.4531 20.7344 26.7578 19.9688C26.0664 19.1992 25.7207 18.1074 25.7207 16.6934C25.7207 15.2793 26.0684 14.1934 26.7637 13.4355C27.4629 12.6777 28.459 12.2988 29.752 12.2988C31.0254 12.2988 32.0098 12.6836 32.7051 13.4531C33.4004 14.2227 33.748 15.3066 33.748 16.7051ZM27.209 16.7051C27.209 17.7598 27.4219 18.5605 27.8477 19.1074C28.2734 19.6504 28.9043 19.9219 29.7402 19.9219C30.5723 19.9219 31.1992 19.6523 31.6211 19.1133C32.0469 18.5742 32.2598 17.7715 32.2598 16.7051C32.2598 15.6543 32.0488 14.8574 31.627 14.3145C31.209 13.7715 30.584 13.5 29.752 13.5C28.9121 13.5 28.2773 13.7715 27.8477 14.3145C27.4219 14.8574 27.209 15.6543 27.209 16.7051ZM35.5879 12.4336H38.1309C39.3105 12.4336 40.1621 12.6055 40.6855 12.9492C41.2129 13.293 41.4766 13.8359 41.4766 14.5781C41.4766 15.0781 41.3477 15.4941 41.0898 15.8262C40.832 16.1582 40.4609 16.3672 39.9766 16.4531V16.5117C40.5781 16.625 41.0195 16.8496 41.3008 17.1855C41.5859 17.5176 41.7285 17.9688 41.7285 18.5391C41.7285 19.3086 41.459 19.9121 40.9199 20.3496C40.3848 20.7832 39.6387 21 38.6816 21H35.5879V12.4336ZM36.9883 15.9727H38.3359C38.9219 15.9727 39.3496 15.8809 39.6191 15.6973C39.8887 15.5098 40.0234 15.1934 40.0234 14.748C40.0234 14.3457 39.877 14.0547 39.584 13.875C39.2949 13.6953 38.834 13.6055 38.2012 13.6055H36.9883V15.9727ZM36.9883 17.1094V19.8223H38.4766C39.0625 19.8223 39.5039 19.7109 39.8008 19.4883C40.1016 19.2617 40.252 18.9062 40.252 18.4219C40.252 17.9766 40.0996 17.6465 39.7949 17.4316C39.4902 17.2168 39.0273 17.1094 38.4062 17.1094H36.9883ZM43.5098 12.4336H44.793V16.8867C44.793 17.3516 44.7812 17.8223 44.7578 18.2988C44.7344 18.7715 44.7168 19.0918 44.7051 19.2598H44.7578L49.1348 12.4336H50.7695V21H49.4805V16.582C49.4805 15.9062 49.5176 15.0859 49.5918 14.1211H49.5449L45.1504 21H43.5098V12.4336ZM59.7695 21H58.3633V17.1387H54.4141V21H53.0137V12.4336H54.4141V15.9375H58.3633V12.4336H59.7695V21ZM68.5996 21H66.9531L63.4258 16.6582V21H62.0254V12.4336H63.4258V16.582L66.8945 12.4336H68.4297L64.9727 16.5703L68.5996 21ZM75.0508 21L74.1953 18.6211H70.9199L70.082 21H68.6055L71.8105 12.3984H73.334L76.5391 21H75.0508ZM73.8262 17.4141L73.0234 15.082C72.9648 14.9258 72.8828 14.6797 72.7773 14.3438C72.6758 14.0078 72.6055 13.7617 72.5664 13.6055C72.4609 14.0859 72.3066 14.6113 72.1035 15.1816L71.3301 17.4141H73.8262Z" fill="white"/>
<path d="M0 32H8V40L0 32Z" fill="#009933"/>
</svg>
