<svg width="32" height="27" viewBox="0 0 32 27" fill="none" xmlns="http://www.w3.org/2000/svg">
<path fill-rule="evenodd" clip-rule="evenodd" d="M16 7.001C11.581 7.001 8 10.582 8 15.001C8 19.419 11.581 23.001 16 23.001C20.419 23.001 24 19.419 24 15.001C24 10.582 20.419 7.001 16 7.001ZM20.555 18.905C18.399 21.421 14.612 21.712 12.096 19.556C9.579 17.399 9.289 13.611 11.446 11.096C13.601 8.579 17.389 8.29 19.905 10.446C22.421 12.601 22.711 16.39 20.555 18.905ZM16 11.001C13.791 11.001 12.001 12.792 12 14.999V15.001C12 15.277 12.224 15.501 12.5 15.501C12.776 15.501 13 15.277 13 15.001V14.999C13.001 13.343 14.343 12.001 16 12.001C16.276 12.001 16.5 11.777 16.5 11.501C16.5 11.225 16.276 11.001 16 11.001ZM29.493 6.041L25.158 5.318L23.785 1.884C23.326 0.738999 22.232 0 21 0H11C9.768 0 8.674 0.739002 8.214 1.885L6.842 5.318L2.509 6.041C1.055 6.282 0 7.526 0 9V23.999C0 25.652 1.346 26.999 3 26.999H29C30.654 26.999 32 25.652 32 23.999V9C32 7.526 30.945 6.282 29.493 6.041ZM30 23.999C30 24.552 29.553 24.999 29 24.999H3C2.447 24.999 2 24.552 2 23.999V9C2 8.51 2.354 8.093 2.836 8.014L8.28 7.107L10.071 2.629C10.223 2.25 10.591 2.001 11 2.001H21C21.409 2.001 21.776 2.25 21.929 2.629L23.72 7.107L29.164 8.014C29.646 8.093 30 8.511 30 9V23.999Z" fill="#E03D3D"/>
</svg>
