<svg width="157" height="40" viewBox="0 0 157 40" fill="none" xmlns="http://www.w3.org/2000/svg">
<rect width="157" height="32" fill="#FBCF19"/>
<path d="M20.7754 13.5117C19.9707 13.5117 19.3379 13.7969 18.877 14.3672C18.416 14.9375 18.1855 15.7246 18.1855 16.7285C18.1855 17.7793 18.4062 18.5742 18.8477 19.1133C19.293 19.6523 19.9355 19.9219 20.7754 19.9219C21.1387 19.9219 21.4902 19.8867 21.8301 19.8164C22.1699 19.7422 22.5234 19.6484 22.8906 19.5352V20.7363C22.2188 20.9902 21.457 21.1172 20.6055 21.1172C19.3516 21.1172 18.3887 20.7383 17.7168 19.9805C17.0449 19.2188 16.709 18.1309 16.709 16.7168C16.709 15.8262 16.8711 15.0469 17.1953 14.3789C17.5234 13.7109 17.9961 13.1992 18.6133 12.8438C19.2305 12.4883 19.9551 12.3105 20.7871 12.3105C21.6621 12.3105 22.4707 12.4941 23.2129 12.8613L22.709 14.0273C22.4199 13.8906 22.1133 13.7715 21.7891 13.6699C21.4688 13.5645 21.1309 13.5117 20.7754 13.5117ZM31.3223 21H29.916V13.6348H26.1367V21H24.7363V12.4336H31.3223V21ZM38.4297 21H33.584V12.4336H38.4297V13.6172H34.9844V15.9492H38.2129V17.1211H34.9844V19.8105H38.4297V21ZM46.873 19.834H48.0098V23.3613H46.6562V21H40.2871V12.4336H41.6875V19.7988H45.4668V12.4336H46.873V19.834ZM55.9785 21H54.5723V13.6348H50.793V21H49.3926V12.4336H55.9785V21ZM63.9121 15.0234C63.9121 15.918 63.6191 16.6035 63.0332 17.0801C62.4473 17.5566 61.6133 17.7949 60.5312 17.7949H59.6406V21H58.2402V12.4336H60.707C61.7773 12.4336 62.5781 12.6523 63.1094 13.0898C63.6445 13.5273 63.9121 14.1719 63.9121 15.0234ZM59.6406 16.6172H60.3848C61.1035 16.6172 61.6309 16.4922 61.9668 16.2422C62.3027 15.9922 62.4707 15.6016 62.4707 15.0703C62.4707 14.5781 62.3203 14.2109 62.0195 13.9688C61.7188 13.7266 61.25 13.6055 60.6133 13.6055H59.6406V16.6172ZM70.4688 21H65.623V12.4336H70.4688V13.6172H67.0234V15.9492H70.252V17.1211H67.0234V19.8105H70.4688V21ZM71.2656 19.7988H71.9277C72.4941 18.7637 72.9688 17.6016 73.3516 16.3125C73.7344 15.0234 73.9805 13.7305 74.0898 12.4336H78.5137V19.7988H79.6211V23.3613H78.2734V21H72.6133V23.3613H71.2656V19.7988ZM75.2617 13.6465C75.1758 14.5332 74.957 15.5625 74.6055 16.7344C74.2539 17.9023 73.8535 18.9238 73.4043 19.7988H77.1133V13.6465H75.2617ZM87.4375 21H86.0371V13.6348H83.5996C83.291 16.1348 83.043 17.8359 82.8555 18.7383C82.6719 19.6406 82.4121 20.2695 82.0762 20.625C81.7402 20.9766 81.2949 21.1465 80.7402 21.1348C80.4551 21.1348 80.1836 21.0859 79.9258 20.9883V19.8223C80.1484 19.9199 80.3652 19.9688 80.5762 19.9688C80.8574 19.9688 81.0762 19.8008 81.2324 19.4648C81.3926 19.125 81.5664 18.377 81.7539 17.2207C81.9453 16.0645 82.1719 14.4688 82.4336 12.4336H87.4375V21ZM97.3105 16.7051C97.3105 18.0996 96.9609 19.1836 96.2617 19.957C95.5664 20.7305 94.5801 21.1172 93.3027 21.1172C92.0098 21.1172 91.0156 20.7344 90.3203 19.9688C89.6289 19.1992 89.2832 18.1074 89.2832 16.6934C89.2832 15.2793 89.6309 14.1934 90.3262 13.4355C91.0254 12.6777 92.0215 12.2988 93.3145 12.2988C94.5879 12.2988 95.5723 12.6836 96.2676 13.4531C96.9629 14.2227 97.3105 15.3066 97.3105 16.7051ZM90.7715 16.7051C90.7715 17.7598 90.9844 18.5605 91.4102 19.1074C91.8359 19.6504 92.4668 19.9219 93.3027 19.9219C94.1348 19.9219 94.7617 19.6523 95.1836 19.1133C95.6094 18.5742 95.8223 17.7715 95.8223 16.7051C95.8223 15.6543 95.6113 14.8574 95.1895 14.3145C94.7715 13.7715 94.1465 13.5 93.3145 13.5C92.4746 13.5 91.8398 13.7715 91.4102 14.3145C90.9844 14.8574 90.7715 15.6543 90.7715 16.7051ZM101.295 16.5703L98.166 12.4336H99.666L102.713 16.582V12.4336H104.043V16.582L107.09 12.4336H108.59L105.461 16.5703L108.725 21H107.178L104.043 16.6582V21H102.713V16.6582L99.5781 21H98.0195L101.295 16.5703ZM114.719 21H109.873V12.4336H114.719V13.6172H111.273V15.9492H114.502V17.1211H111.273V19.8105H114.719V21ZM123.332 21H121.926V17.1387H117.977V21H116.576V12.4336H117.977V15.9375H121.926V12.4336H123.332V21ZM125.588 12.4336H126.871V16.8867C126.871 17.3516 126.859 17.8223 126.836 18.2988C126.812 18.7715 126.795 19.0918 126.783 19.2598H126.836L131.213 12.4336H132.848V21H131.559V16.582C131.559 15.9062 131.596 15.0859 131.67 14.1211H131.623L127.229 21H125.588V12.4336ZM139.938 21H135.092V12.4336H139.938V13.6172H136.492V15.9492H139.721V17.1211H136.492V19.8105H139.938V21Z" fill="black"/>
<path d="M0 32H8V40L0 32Z" fill="#FBCF19"/>
<path d="M0 32H8V40L0 32Z" fill="black" fill-opacity="0.21"/>
</svg>
