<svg width="32" height="31" viewBox="0 0 32 31" fill="none" xmlns="http://www.w3.org/2000/svg">
<path d="M31.8805 11.557C31.6045 10.758 30.8935 10.173 30.0375 10.046L21.7115 8.808L18.0915 1.294C17.7115 0.504999 16.8965 0 15.9995 0C15.1035 0 14.2885 0.504999 13.9075 1.294L10.2885 8.808L1.96152 10.046C1.10652 10.173 0.395518 10.758 0.119518 11.557C-0.155482 12.358 0.0525208 13.24 0.656521 13.842L6.75852 19.935L5.34352 28.386C5.19952 29.237 5.56952 30.091 6.29152 30.589C6.68852 30.861 7.15552 31 7.62252 31C8.00652 31 8.39152 30.906 8.74052 30.72L15.9995 26.812L23.2595 30.72C23.6095 30.907 23.9935 31 24.3765 31C24.8445 31 25.3105 30.861 25.7085 30.589C26.4315 30.091 26.7995 29.236 26.6565 28.386L25.2405 19.935L31.3435 13.842C31.9475 13.239 32.1545 12.357 31.8805 11.557ZM23.5875 18.363C23.0755 18.874 22.8435 19.592 22.9615 20.297L24.3765 28.749L17.1175 24.842C16.7685 24.654 16.3845 24.561 15.9995 24.561C15.6155 24.561 15.2305 24.655 14.8825 24.842L7.62252 28.749L9.03852 20.297C9.15652 19.592 8.92452 18.874 8.41252 18.363L2.31052 12.271L10.6365 11.031C11.3975 10.918 12.0525 10.443 12.3795 9.764L15.9985 2.251L19.6185 9.764C19.9455 10.443 20.5995 10.918 21.3605 11.031L29.6875 12.271L23.5875 18.363Z" fill="#E03DCF"/>
</svg>
