<svg width="16" height="16" viewBox="0 0 16 16" fill="none" xmlns="http://www.w3.org/2000/svg">
<path fill-rule="evenodd" clip-rule="evenodd" d="M8.00424 1C4.1319 1 1 4.13992 1 8C1 11.8601 4.1319 15 8.00424 15C11.8661 15 15 11.8607 15 8C15 4.13935 11.8661 1 8.00424 1ZM0 8C0 3.588 3.57925 0 8.00424 0C12.4194 0 16 3.588 16 8C16 12.412 12.4194 16 8.00424 16C3.57925 16 0 12.412 0 8Z" fill="white"/>
<path d="M7.67208 9.91398L9.8574 12L12.5 4L2.5 6.71826L5.24146 7.8601L10.8137 5.19779L6.38591 8.69355L5.65231 10.9796L7.67208 9.91398Z" fill="white"/>
</svg>
