<svg width="22" height="32" viewBox="0 0 22 32" fill="none" xmlns="http://www.w3.org/2000/svg">
<path d="M19 0H3C1.343 0 0 1.343 0 3V29C0 30.658 1.343 32 3 32H19C20.657 32 22 30.656 22 29V3C22 1.343 20.657 0 19 0ZM20 29C20 29.552 19.552 30 19 30L3 30.001C2.448 30.001 2 29.553 2 29V26.996L20 26.995V29ZM20 25.996L2 25.997V6.001L20 6V25.996ZM20 5L2 5.001V3.001C2 2.449 2.448 2.001 3 2.001L19 2C19.552 2 20 2.448 20 3V5ZM12.5 3H9.5C9.224 3 9 3.224 9 3.5C9 3.776 9.224 4 9.5 4H12.5C12.776 4 13 3.776 13 3.5C13 3.224 12.776 3 12.5 3ZM10.5 28.996H11.5C11.776 28.996 12 28.771 12 28.495C12 28.219 11.776 27.996 11.5 27.996H10.5C10.224 27.996 10 28.219 10 28.495C10 28.771 10.224 28.996 10.5 28.996Z" fill="#00B7B9"/>
</svg>
