<svg width="40" height="40" viewBox="0 0 40 40" fill="none" xmlns="http://www.w3.org/2000/svg">
<path fill-rule="evenodd" clip-rule="evenodd" d="M20 0C31.0457 0 40 8.9543 40 20C40 31.0457 31.0457 40 20 40C8.95431 40 0 31.0457 0 20C0 8.9543 8.95431 0 20 0Z" fill="#7F4DA0"/>
<path fill-rule="evenodd" clip-rule="evenodd" d="M25.3287 17.4654C25.2314 16.6751 24.9886 16.0546 24.5572 15.505C23.9971 14.7973 23.2813 14.3735 22.2216 14.1221C21.5309 13.9545 21.2519 13.9738 21.0021 14.2019C20.7695 14.4157 20.724 14.8442 20.9018 15.1217C21.0269 15.3231 21.1711 15.3953 21.5723 15.474C22.1066 15.5723 22.4758 15.6999 22.8117 15.8919C23.5245 16.3036 23.8565 16.9477 23.892 17.9905C23.9086 18.4801 23.9509 18.6306 24.122 18.8043C24.4389 19.1217 25.003 19.06 25.2423 18.6801C25.3301 18.5369 25.3435 18.4746 25.3527 18.1421C25.3589 17.9363 25.35 17.6299 25.3287 17.4654Z" fill="white"/>
<path fill-rule="evenodd" clip-rule="evenodd" d="M28.1204 18.3564C27.9796 15.9352 27.0326 13.9873 25.3378 12.6168C24.3829 11.8467 23.2287 11.3171 21.9634 11.0596C21.5 10.9675 20.6467 10.8929 20.5003 10.9356C20.3621 10.9751 20.1668 11.1247 20.0797 11.2599C19.9876 11.4066 19.9668 11.7341 20.0454 11.9236C20.1722 12.2403 20.4081 12.3521 21.0687 12.4099C22.0871 12.499 23.1375 12.8568 23.9312 13.3865C24.8373 13.9897 25.5576 14.8146 26.0236 15.7839C26.4262 16.6168 26.6738 17.817 26.6669 18.8919C26.6646 19.2806 26.7247 19.5001 26.881 19.6606C27.117 19.9074 27.4609 19.9614 27.7645 19.7975C28.1009 19.6205 28.1796 19.31 28.1204 18.3564Z" fill="white"/>
<path fill-rule="evenodd" clip-rule="evenodd" d="M31.2104 27.6802C31.1631 27.5418 31.0526 27.3284 30.9736 27.2058C30.4762 26.4548 27.804 24.3635 26.4698 23.6795C25.708 23.2882 25.1435 23.1578 24.7251 23.2803C24.2751 23.4068 24.0383 23.6163 23.2844 24.5532C22.9805 24.9288 22.6686 25.2806 22.5857 25.3359C22.3805 25.4783 21.9778 25.593 21.6936 25.593C21.0345 25.5889 19.8384 25.162 18.9187 24.6006C18.2043 24.1658 17.2886 23.3871 16.5859 22.6162C15.757 21.7109 15.1926 20.9123 14.7465 20.011C14.1702 18.8527 14.0242 18.1451 14.2649 17.6272C14.3241 17.4967 14.4031 17.3584 14.4386 17.3149C14.4741 17.2754 14.8452 16.971 15.2557 16.6389C16.0609 15.9985 16.1912 15.8522 16.3412 15.4134C16.5306 14.856 16.4794 14.2867 16.1872 13.7135C15.9622 13.2786 15.3741 12.3299 14.9478 11.7171C14.3834 10.9107 12.9781 9.18712 12.6978 8.95381C12.1926 8.54272 11.5453 8.47152 10.8308 8.7483C10.0769 9.04084 8.66379 10.1794 8.05985 10.974C7.51513 11.6934 7.30599 12.2034 7.27438 12.8754C7.24677 13.4289 7.29412 13.6581 7.58622 14.3658C9.87168 19.9161 13.282 24.3477 17.9675 27.8661C20.4147 29.7043 22.9528 31.1037 25.5856 32.0604C27.1211 32.6178 27.7882 32.6455 28.5737 32.1869C28.9052 31.9892 29.7263 31.1472 30.1841 30.5345C30.942 29.5145 31.2223 29.0441 31.3012 28.6685C31.3565 28.4116 31.3131 27.9649 31.2104 27.6802Z" fill="white"/>
<path fill-rule="evenodd" clip-rule="evenodd" d="M30.9632 18.9125C30.9127 17.543 30.6821 16.4196 30.2013 15.1672C29.7266 13.9352 29.2462 13.1312 28.3388 12.0439C27.481 11.0244 26.8148 10.4423 25.7581 9.79426C24.2838 8.89144 22.4897 8.29398 20.479 8.04271C19.7933 7.9549 19.6382 7.96117 19.4278 8.10154C19.0201 8.36744 19.0256 9.03067 19.4345 9.29259C19.5699 9.37591 19.69 9.40626 20.2385 9.47805C21.0805 9.59141 21.6219 9.69824 22.2643 9.87352C24.7835 10.5622 26.7208 11.9698 28.0159 14.0593C29.0997 15.801 29.5497 17.5428 29.4858 19.7673C29.4636 20.5194 29.4797 20.6518 29.5947 20.8324C29.8148 21.1692 30.3954 21.2358 30.6932 20.9564C30.8786 20.7861 30.9135 20.6582 30.95 20.0145C30.9675 19.6787 30.9712 19.1831 30.9632 18.9125Z" fill="white"/>
</svg>
