<svg width="16" height="16" viewBox="0 0 16 16" fill="none" xmlns="http://www.w3.org/2000/svg">
<path d="M14.1948 1.55955C13.7763 1.19474 12.0802 0.0275698 8.30711 0.0115474C8.30711 0.0115474 3.85689 -0.243582 1.68767 1.64459C0.480237 2.79081 0.0565304 4.46577 0.00974074 6.54252C-0.0344495 8.62297 -0.0929323 12.5164 3.86469 13.5714L3.86859 13.5726L3.86729 15.1847C3.86729 15.1847 3.8413 15.8367 4.2949 15.9686C4.84208 16.1313 5.1644 15.6346 5.68689 15.0997C5.97543 14.8076 6.37053 14.3762 6.66947 14.0472C9.37677 14.2628 11.4589 13.7698 11.6955 13.6971C12.2426 13.5283 15.3347 13.1536 15.8376 9.25893C16.3562 5.2447 15.5855 2.70454 14.1948 1.55955ZM14.6523 8.96806C14.2273 12.2206 11.7188 12.4252 11.2575 12.5657C11.0625 12.6261 9.22991 13.0562 6.93201 12.9145C6.93201 12.9145 5.21769 14.8754 4.68351 15.3856C4.60163 15.4645 4.50284 15.4978 4.43656 15.4805C4.34558 15.4584 4.31829 15.3561 4.32089 15.2045L4.33519 12.5263C0.987128 11.645 1.18208 8.33086 1.22107 6.59552C1.26006 4.86017 1.60319 3.43787 2.62346 2.48146C4.45866 0.905101 8.23822 1.14174 8.23822 1.14174C11.4316 1.15407 12.9601 2.06611 13.3162 2.373C14.4911 3.32818 15.0903 5.61568 14.6523 8.96806ZM8.62684 9.1628C8.62684 9.1628 8.92707 9.18867 9.08823 8.99764L9.40277 8.62296C9.55614 8.43686 9.92265 8.3173 10.2827 8.50711C10.7571 8.75977 11.3718 9.16033 11.7929 9.53377C12.0243 9.71988 12.0789 9.99103 11.9203 10.2807L11.9177 10.2856C11.7565 10.5592 11.5395 10.8143 11.2653 11.051L11.2575 11.0571C10.9481 11.3012 10.592 11.4429 10.2112 11.3246L10.2034 11.316C9.52104 11.1335 7.8821 10.3398 6.83713 9.5498C5.12801 8.2717 3.91408 6.16168 3.57745 5.03148L3.56705 5.02532C3.44228 4.66173 3.59435 4.32526 3.85039 4.03193L3.85689 4.02824C4.10773 3.76818 4.37678 3.56112 4.66401 3.40706L4.67051 3.40583C4.97464 3.25669 5.26318 3.30723 5.45814 3.52784C5.71678 3.77927 6.20157 4.38812 6.5408 4.96C6.74095 5.30017 6.61618 5.65019 6.41862 5.79316L6.02221 6.09143C5.82205 6.24302 5.84935 6.52773 5.84935 6.52773C5.84935 6.52773 6.43423 8.63406 8.62684 9.1628ZM12.0789 7.42005C12.1958 7.41759 12.2907 7.32761 12.2907 7.21546C12.2803 5.88437 11.8501 4.8158 11.0131 4.04056C10.1774 3.26779 9.12593 2.87339 7.8873 2.86353H7.886C7.76903 2.86353 7.67285 2.9535 7.67155 3.06443C7.67155 3.17781 7.76642 3.26779 7.8834 3.27025C9.00895 3.27641 9.96034 3.63384 10.7142 4.33019C11.4667 5.02655 11.854 5.99899 11.8644 7.21916C11.8644 7.33008 11.9593 7.42005 12.0789 7.42005ZM10.9546 7.00347H10.9494C10.8324 7.001 10.7376 6.90857 10.7415 6.79764C10.7584 6.10498 10.5491 5.5442 10.1046 5.08325C9.6627 4.62476 9.05444 4.37333 8.24472 4.31787C8.12774 4.30801 8.03936 4.21187 8.04716 4.10095C8.05626 3.98879 8.15764 3.90622 8.27461 3.91361C9.18441 3.9777 9.90576 4.27966 10.4178 4.8121C10.9325 5.34453 11.186 6.01624 11.1665 6.80504C11.1665 6.91596 11.0703 7.00347 10.9546 7.00347ZM9.86026 6.65591C9.74719 6.65591 9.65361 6.5721 9.64711 6.46364C9.61202 5.77714 9.2702 5.43944 8.57355 5.40493C8.45658 5.39877 8.36559 5.30386 8.37209 5.19171C8.37729 5.08078 8.47867 4.99574 8.59564 5.00191C9.51584 5.04751 10.0253 5.54666 10.0721 6.44515C10.0786 6.55607 9.98763 6.65098 9.87066 6.65714H9.86026V6.65591Z" fill="white"/>
</svg>
