<svg width="62" height="22" viewBox="0 0 62 22" fill="none" xmlns="http://www.w3.org/2000/svg">
<mask id="mask0" mask-type="alpha" maskUnits="userSpaceOnUse" x="0" y="0" width="62" height="21">
<path d="M0 0.62207H61.8749V20.6221H0" fill="white"/>
</mask>
<g mask="url(#mask0)">
<path fill-rule="evenodd" clip-rule="evenodd" d="M21.8018 20.3583L24.9368 0.973145H29.9489L26.8138 20.3583H21.8018Z" fill="#005CA3"/>
<path fill-rule="evenodd" clip-rule="evenodd" d="M44.9826 1.44691C43.9926 1.05529 42.4253 0.62207 40.4865 0.62207C35.5367 0.62207 32.0507 3.26172 32.0302 7.03548C31.989 9.81967 34.5257 11.3664 36.4233 12.2946C38.362 13.243 39.0222 13.8615 39.0222 14.7074C39.0016 16.0066 37.4548 16.6049 36.0111 16.6049C34.0105 16.6049 32.9378 16.2957 31.3083 15.5734L30.6482 15.2641L29.9473 19.6156C31.123 20.1518 33.2882 20.6262 35.5367 20.6468C40.7958 20.6468 44.2195 18.0483 44.2607 14.0271C44.2813 11.8198 42.9409 10.1289 40.0533 8.74734C38.3003 7.86073 37.2279 7.26238 37.2279 6.35518C37.2485 5.53034 38.1351 4.68491 40.1151 4.68491C41.7446 4.64373 42.9409 5.03536 43.8485 5.42739L44.3023 5.63329L44.9826 1.44691Z" fill="#005CA3"/>
</g>
<path fill-rule="evenodd" clip-rule="evenodd" d="M57.8311 0.973145H53.9535C52.7572 0.973145 51.8496 1.32359 51.3341 2.58123L43.8887 20.3583H49.1478C49.1478 20.3583 50.0142 17.9658 50.2 17.4502H56.6348C56.7793 18.1309 57.2331 20.3583 57.2331 20.3583H61.8737L57.8311 0.973145ZM51.6433 13.4907C52.0559 12.3772 53.6443 8.06685 53.6443 8.06685C53.6237 8.10844 54.0569 6.93275 54.3044 6.21086L54.6548 7.88113C54.6548 7.88113 55.6036 12.5217 55.8099 13.4907H51.6433Z" fill="#005CA3"/>
<path fill-rule="evenodd" clip-rule="evenodd" d="M17.6139 0.973145L12.7052 14.192L12.1691 11.5108C11.2615 8.41771 8.41549 5.05658 5.23926 3.38589L9.73531 20.3377H15.036L22.9146 0.973145H17.6139Z" fill="#005CA3"/>
<path fill-rule="evenodd" clip-rule="evenodd" d="M8.1471 0.973145H0.0823604L0 1.36477C6.29069 2.97327 10.4569 6.85039 12.1688 11.5108L10.4157 2.60182C10.127 1.36477 9.24002 1.01391 8.1471 0.973145Z" fill="#FFAD30"/>
</svg>
