<svg width="40" height="40" viewBox="0 0 40 40" fill="none" xmlns="http://www.w3.org/2000/svg">
<path fill-rule="evenodd" clip-rule="evenodd" d="M0 20C0 8.95431 8.95431 0 20 0C31.0457 0 40 8.95431 40 20C40 31.0457 31.0457 40 20 40C8.95431 40 0 31.0457 0 20Z" fill="#4C6C91"/>
<path fill-rule="evenodd" clip-rule="evenodd" d="M21.0459 26.5635C21.0459 26.5635 21.4309 26.5215 21.6281 26.3136C21.8086 26.1231 21.8024 25.7636 21.8024 25.7636C21.8024 25.7636 21.7784 24.0849 22.5724 23.837C23.355 23.5933 24.3598 25.4604 25.4261 26.1784C26.2317 26.7212 26.8431 26.6024 26.8431 26.6024L29.6927 26.5635C29.6927 26.5635 31.1827 26.4734 30.4763 25.3232C30.4178 25.2289 30.0641 24.472 28.3581 22.9173C26.5708 21.2898 26.8108 21.553 28.9623 18.7375C30.2728 17.0229 30.7966 15.9762 30.6328 15.5286C30.4773 15.1005 29.5132 15.2142 29.5132 15.2142L26.3057 15.2337C26.3057 15.2337 26.0678 15.2019 25.8915 15.3053C25.7193 15.4067 25.6077 15.6433 25.6077 15.6433C25.6077 15.6433 25.1006 16.9697 24.4234 18.0984C22.995 20.4786 22.4242 20.6046 22.1905 20.4571C21.6469 20.112 21.7825 19.0724 21.7825 18.3339C21.7825 16.0264 22.1394 15.0647 21.0887 14.8158C20.7402 14.7328 20.4835 14.6785 19.5914 14.6693C18.4467 14.658 17.4785 14.6734 16.9296 14.9366C16.5644 15.1118 16.2827 15.503 16.4549 15.5256C16.6667 15.5532 17.1467 15.6526 17.4012 15.9926C17.7299 16.432 17.7184 17.4173 17.7184 17.4173C17.7184 17.4173 17.9073 20.1335 17.2771 20.4704C16.8451 20.7019 16.2524 20.2298 14.9784 18.0697C14.3263 16.9635 13.8338 15.7406 13.8338 15.7406C13.8338 15.7406 13.7389 15.5122 13.5688 15.3893C13.3632 15.2408 13.0763 15.1947 13.0763 15.1947L10.0285 15.2142C10.0285 15.2142 9.57042 15.2265 9.40243 15.4221C9.25323 15.5952 9.39096 15.9547 9.39096 15.9547C9.39096 15.9547 11.7772 21.4353 14.4797 24.1976C16.9578 26.7294 19.7708 26.5635 19.7708 26.5635H21.0459Z" fill="white"/>
</svg>
