<svg width="40" height="40" viewBox="0 0 40 40" fill="none" xmlns="http://www.w3.org/2000/svg">
<path fill-rule="evenodd" clip-rule="evenodd" d="M20 40C31.0457 40 40 31.0457 40 20C40 8.95431 31.0457 0 20 0C8.95431 0 0 8.95431 0 20C0 31.0457 8.95431 40 20 40Z" fill="#25D366"/>
<path fill-rule="evenodd" clip-rule="evenodd" d="M20.6596 31.127H20.6546C18.6642 31.1263 16.7085 30.6269 14.9714 29.6795L8.66699 31.3333L10.3542 25.1706C9.31344 23.367 8.76581 21.3212 8.7667 19.2251C8.76931 12.668 14.1043 7.33325 20.6594 7.33325C23.8409 7.33463 26.8268 8.57314 29.0722 10.8211C31.3175 13.0689 32.5534 16.0569 32.5521 19.2345C32.5495 25.7901 27.2166 31.1243 20.6596 31.127ZM15.2635 27.5265L15.6244 27.7407C17.1421 28.6413 18.8818 29.1178 20.6555 29.1185H20.6595C26.1076 29.1185 30.5419 24.6842 30.5441 19.2338C30.5451 16.5926 29.5179 14.1091 27.6517 12.2407C25.7854 10.3723 23.3036 9.34286 20.6634 9.34194C15.211 9.34194 10.7768 13.7758 10.7746 19.2258C10.7738 21.0936 11.2964 22.9125 12.2859 24.4863L12.5209 24.8603L11.5223 28.5079L15.2635 27.5265ZM26.651 22.0625C26.5767 21.9386 26.3787 21.8642 26.0815 21.7154C25.7844 21.5667 24.3234 20.8479 24.051 20.7486C23.7786 20.6495 23.5805 20.6 23.3824 20.8974C23.1843 21.1948 22.6148 21.8642 22.4415 22.0625C22.2681 22.2608 22.0948 22.2857 21.7977 22.1369C21.5006 21.9882 20.5431 21.6744 19.4081 20.662C18.5247 19.874 17.9283 18.901 17.755 18.6035C17.5816 18.306 17.7365 18.1452 17.8852 17.997C18.0189 17.8638 18.1824 17.6499 18.331 17.4764C18.4795 17.3029 18.5291 17.1789 18.6281 16.9807C18.7272 16.7823 18.6777 16.6088 18.6034 16.4601C18.5291 16.3113 17.9348 14.8487 17.6872 14.2537C17.4459 13.6742 17.201 13.7527 17.0186 13.7436C16.8454 13.7349 16.6471 13.7331 16.4491 13.7331C16.251 13.7331 15.929 13.8074 15.6566 14.1049C15.3843 14.4024 14.6166 15.1213 14.6166 16.5839C14.6166 18.0466 15.6814 19.4596 15.83 19.6579C15.9785 19.8563 17.9253 22.8577 20.9063 24.1448C21.6152 24.451 22.1687 24.6338 22.6003 24.7708C23.3121 24.997 23.96 24.9651 24.4719 24.8885C25.0429 24.8033 26.23 24.1697 26.4778 23.4756C26.7253 22.7814 26.7253 22.1864 26.651 22.0625Z" fill="#FDFDFD"/>
</svg>
