<svg width="16" height="16" viewBox="0 0 16 16" fill="none" xmlns="http://www.w3.org/2000/svg">
<path fill-rule="evenodd" clip-rule="evenodd" d="M2.50497 12.3624L1.77479 14.2202L3.62635 13.4859L4.06579 13.7862C5.19077 14.5549 6.54256 15 8.00424 15C11.8655 15 14.9991 11.8615 14.9991 8C14.9991 4.13822 11.8667 1 8.00566 1C4.13369 1 1.00088 4.13926 1.00088 8C1.00088 9.46469 1.44587 10.8138 2.2061 11.9254L2.50497 12.3624ZM0 16L1.37971 12.4896C0.508392 11.2155 0 9.67054 0 8C0 3.588 3.57988 0 8.00566 0C12.4215 0 16 3.588 16 8C16 12.412 12.4201 16 8.00424 16C6.33505 16 4.7873 15.4907 3.5008 14.6116L0 16Z" fill="white"/>
<path d="M5.77424 10.2187C7.01272 11.4561 9.5956 12.7598 10.8609 12.7598C10.8609 12.7598 12.7716 11.4956 12.773 10.8635C12.773 10.2187 10.8609 8.32242 10.2297 8.95593C9.59701 9.58521 9.59701 10.2187 8.96435 10.2187C8.32453 10.2187 7.69854 9.59739 7.07269 8.97621L7.05226 8.95593L7.05219 8.95586C6.41956 8.32237 5.77565 7.6776 5.77565 7.04412C5.77565 6.41202 6.41961 6.41202 7.05226 5.78133C7.68492 5.14782 5.77424 3.24023 5.14017 3.24023C4.50751 3.24023 3.22949 5.14782 3.22949 5.14782C3.22949 6.41343 4.54988 8.99544 5.77424 10.2187Z" fill="white"/>
</svg>
